<?xml version="1.0" encoding="utf-8"?>
<!-- Generator: Adobe Illustrator 17.1.0, SVG Export Plug-In . SVG Version: 6.00 Build 0)  -->
<!DOCTYPE svg PUBLIC "-//W3C//DTD SVG 1.0//EN" "http://www.w3.org/TR/2001/REC-SVG-20010904/DTD/svg10.dtd">
<svg version="1.0" id="Layer_1" xmlns="http://www.w3.org/2000/svg" xmlns:xlink="http://www.w3.org/1999/xlink" x="0px" y="0px"
	 width="24px" height="24px" viewBox="0 0 24 24" style="enable-background:new 0 0 24 24;" xml:space="preserve">
<path d="M23,0H5v13h18V0z M16,4h-4c-0.6,0-1-0.4-1-1s0.4-1,1-1h4c0.6,0,1,0.4,1,1S16.6,4,16,4z"/>
<path style="fill:none;stroke:#000000;stroke-width:2;stroke-miterlimit:10;" d="M24,15c-1.2,0-17.8,0-19,0c-2.2,0-4,1.8-4,4
	s1.8,4,4,4c1.2,0,17.8,0,19,0"/>
<circle cx="5" cy="19" r="2"/>
<circle cx="11" cy="19" r="2"/>
<circle cx="17" cy="19" r="2"/>
<path d="M24,17.3c-0.3-0.2-0.6-0.3-1-0.3c-1.1,0-2,0.9-2,2c0,1.1,0.9,2,2,2c0.4,0,0.7-0.1,1-0.3V17.3z"/>
</svg>
