<?xml version="1.0" encoding="UTF-8" standalone="no"?>
<!-- Generator: IcoMoon.io -->

<svg
   xmlns:dc="http://purl.org/dc/elements/1.1/"
   xmlns:cc="http://creativecommons.org/ns#"
   xmlns:rdf="http://www.w3.org/1999/02/22-rdf-syntax-ns#"
   xmlns:svg="http://www.w3.org/2000/svg"
   xmlns="http://www.w3.org/2000/svg"
   xmlns:sodipodi="http://sodipodi.sourceforge.net/DTD/sodipodi-0.dtd"
   xmlns:inkscape="http://www.inkscape.org/namespaces/inkscape"
   width="32"
   height="32"
   viewBox="0 0 32 32"
   fill="#000000"
   id="svg2"
   version="1.1"
   inkscape:version="0.48.3.1 r9886"
   sodipodi:docname="icon_lock_alt.svg">
  <metadata
     id="metadata12">
    <rdf:RDF>
      <cc:Work
         rdf:about="">
        <dc:format>image/svg+xml</dc:format>
        <dc:type
           rdf:resource="http://purl.org/dc/dcmitype/StillImage" />
        <dc:title></dc:title>
      </cc:Work>
    </rdf:RDF>
  </metadata>
  <defs
     id="defs10" />
  <sodipodi:namedview
     pagecolor="#ffffff"
     bordercolor="#666666"
     borderopacity="1"
     objecttolerance="10"
     gridtolerance="10"
     guidetolerance="10"
     inkscape:pageopacity="0"
     inkscape:pageshadow="2"
     inkscape:window-width="640"
     inkscape:window-height="480"
     id="namedview8"
     showgrid="false"
     inkscape:zoom="7.375"
     inkscape:cx="16"
     inkscape:cy="16"
     inkscape:window-x="0"
     inkscape:window-y="0"
     inkscape:window-maximized="0"
     inkscape:current-layer="svg2" />
  <g
     id="g4"
     style="fill:#d40000">
    <path
       d="M 16,0C 10.478,0, 6,4.546, 6,10.154L 6,12 L 4,12 C 2.896,12, 2,12.896, 2,14l0,16 c0,1.104, 0.896,2, 2,2l 24,0 c 1.104,0, 2-0.896, 2-2L 30,14 c0-1.104-0.896-2-2-2l-2,0 L 26,10.154 C 26,4.546, 21.522,0, 16,0z M 8,10.154C 8,5.658, 11.588,2, 16,2s 8,3.658, 8,8.154L 24,12 L 8,12 L 8,10.154 z M 28,30L 4,30 L 4,14 l 24,0 L 28,30 z M 20,22c0-2.21-1.79-4-4-4s-4,1.79-4,4s 1.79,4, 4,4S 20,24.21, 20,22z M 16,24c-1.102,0-2-0.898-2-2 s 0.898-2, 2-2s 2,0.898, 2,2S 17.102,24, 16,24z"
       id="path6"
       style="fill:#d40000" />
  </g>
</svg>
